<mxfile host="app.diagrams.net" modified="2024-04-03T19:42:22.463Z" agent="Mozilla/5.0 (Windows NT 10.0; Win64; x64) AppleWebKit/537.36 (KHTML, like Gecko) Chrome/123.0.0.0 Safari/537.36" etag="ZGL4hHBYWjxm4A61FDcn" version="24.0.2" type="device">
  <diagram name="Página-1" id="Y8vxCLzWGkPodfb6m7Nj">
    <mxGraphModel dx="880" dy="468" grid="1" gridSize="10" guides="1" tooltips="1" connect="1" arrows="1" fold="1" page="1" pageScale="1" pageWidth="827" pageHeight="1169" math="0" shadow="0">
      <root>
        <mxCell id="0" />
        <mxCell id="1" parent="0" />
        <mxCell id="xpv23t8gmEGSBuQ_FrFm-12" style="edgeStyle=orthogonalEdgeStyle;rounded=0;orthogonalLoop=1;jettySize=auto;html=1;entryX=0;entryY=0.5;entryDx=0;entryDy=0;" edge="1" parent="1" source="xpv23t8gmEGSBuQ_FrFm-1" target="xpv23t8gmEGSBuQ_FrFm-11">
          <mxGeometry relative="1" as="geometry" />
        </mxCell>
        <mxCell id="xpv23t8gmEGSBuQ_FrFm-1" value="Aluno" style="whiteSpace=wrap;html=1;align=center;" vertex="1" parent="1">
          <mxGeometry x="160" y="130" width="100" height="40" as="geometry" />
        </mxCell>
        <mxCell id="xpv23t8gmEGSBuQ_FrFm-2" value="Curso" style="whiteSpace=wrap;html=1;align=center;" vertex="1" parent="1">
          <mxGeometry x="480" y="130" width="100" height="40" as="geometry" />
        </mxCell>
        <mxCell id="xpv23t8gmEGSBuQ_FrFm-3" value="Nome" style="ellipse;whiteSpace=wrap;html=1;align=center;shadow=0;textShadow=0;" vertex="1" parent="1">
          <mxGeometry x="30" y="70" width="100" height="40" as="geometry" />
        </mxCell>
        <mxCell id="xpv23t8gmEGSBuQ_FrFm-5" style="edgeStyle=orthogonalEdgeStyle;rounded=0;orthogonalLoop=1;jettySize=auto;html=1;entryX=0.5;entryY=0;entryDx=0;entryDy=0;" edge="1" parent="1" source="xpv23t8gmEGSBuQ_FrFm-4" target="xpv23t8gmEGSBuQ_FrFm-1">
          <mxGeometry relative="1" as="geometry" />
        </mxCell>
        <mxCell id="xpv23t8gmEGSBuQ_FrFm-4" value="Matrícula" style="ellipse;whiteSpace=wrap;html=1;align=center;fontStyle=4;" vertex="1" parent="1">
          <mxGeometry x="160" y="40" width="100" height="40" as="geometry" />
        </mxCell>
        <mxCell id="xpv23t8gmEGSBuQ_FrFm-6" style="edgeStyle=orthogonalEdgeStyle;rounded=0;orthogonalLoop=1;jettySize=auto;html=1;entryX=0.15;entryY=0;entryDx=0;entryDy=0;entryPerimeter=0;" edge="1" parent="1" source="xpv23t8gmEGSBuQ_FrFm-3" target="xpv23t8gmEGSBuQ_FrFm-1">
          <mxGeometry relative="1" as="geometry" />
        </mxCell>
        <mxCell id="xpv23t8gmEGSBuQ_FrFm-8" style="edgeStyle=orthogonalEdgeStyle;rounded=0;orthogonalLoop=1;jettySize=auto;html=1;entryX=0;entryY=0.5;entryDx=0;entryDy=0;" edge="1" parent="1" source="xpv23t8gmEGSBuQ_FrFm-7" target="xpv23t8gmEGSBuQ_FrFm-1">
          <mxGeometry relative="1" as="geometry" />
        </mxCell>
        <mxCell id="xpv23t8gmEGSBuQ_FrFm-7" value="Telefone" style="ellipse;shape=doubleEllipse;margin=3;whiteSpace=wrap;html=1;align=center;" vertex="1" parent="1">
          <mxGeometry x="10" y="120" width="100" height="40" as="geometry" />
        </mxCell>
        <mxCell id="xpv23t8gmEGSBuQ_FrFm-13" style="edgeStyle=orthogonalEdgeStyle;rounded=0;orthogonalLoop=1;jettySize=auto;html=1;entryX=0;entryY=0.5;entryDx=0;entryDy=0;" edge="1" parent="1" source="xpv23t8gmEGSBuQ_FrFm-11" target="xpv23t8gmEGSBuQ_FrFm-2">
          <mxGeometry relative="1" as="geometry" />
        </mxCell>
        <mxCell id="xpv23t8gmEGSBuQ_FrFm-11" value="Matriculado" style="shape=rhombus;perimeter=rhombusPerimeter;whiteSpace=wrap;html=1;align=center;" vertex="1" parent="1">
          <mxGeometry x="310" y="120" width="120" height="60" as="geometry" />
        </mxCell>
        <mxCell id="xpv23t8gmEGSBuQ_FrFm-16" style="edgeStyle=orthogonalEdgeStyle;rounded=0;orthogonalLoop=1;jettySize=auto;html=1;entryX=0.5;entryY=0;entryDx=0;entryDy=0;" edge="1" parent="1" source="xpv23t8gmEGSBuQ_FrFm-14" target="xpv23t8gmEGSBuQ_FrFm-2">
          <mxGeometry relative="1" as="geometry" />
        </mxCell>
        <mxCell id="xpv23t8gmEGSBuQ_FrFm-14" value="Código" style="ellipse;whiteSpace=wrap;html=1;align=center;fontStyle=4;" vertex="1" parent="1">
          <mxGeometry x="480" y="60" width="100" height="40" as="geometry" />
        </mxCell>
        <mxCell id="xpv23t8gmEGSBuQ_FrFm-18" style="edgeStyle=orthogonalEdgeStyle;rounded=0;orthogonalLoop=1;jettySize=auto;html=1;entryX=1;entryY=0.75;entryDx=0;entryDy=0;" edge="1" parent="1" source="xpv23t8gmEGSBuQ_FrFm-15" target="xpv23t8gmEGSBuQ_FrFm-2">
          <mxGeometry relative="1" as="geometry" />
        </mxCell>
        <mxCell id="xpv23t8gmEGSBuQ_FrFm-15" value="Nome" style="ellipse;whiteSpace=wrap;html=1;align=center;" vertex="1" parent="1">
          <mxGeometry x="620" y="100" width="100" height="40" as="geometry" />
        </mxCell>
      </root>
    </mxGraphModel>
  </diagram>
</mxfile>
